HIERARCHY
ROOT base
{
	OFFSET 0.0 0.0 0.0
	CHANNELS 6 Xposition Yposition Zposition Zrotation Yrotation Xrotation
	JOINT root
	{
		OFFSET 0 0 0
		CHANNELS 6 Xposition Yposition Zposition Zrotation Yrotation Xrotation
		JOINT chest
		{
			OFFSET 0 4.72302 0
			CHANNELS 3 Zrotation Yrotation Xrotation
			JOINT neck
			{
				OFFSET 0 4.47788 0
				CHANNELS 3 Zrotation Yrotation Xrotation
				End Site
				{
					OFFSET 0.0 0.0 0.0
				}
			}
			JOINT right_shoulder
			{
				OFFSET -0.481 4.87 3.6622
				CHANNELS 3 Zrotation Yrotation Xrotation
				JOINT right_elbow
				{
					OFFSET 0 -5.49576 0
					CHANNELS 3 Zrotation Yrotation Xrotation
					JOINT right_wrist
					{
						OFFSET 0 -5.17894 0
						CHANNELS 3 Zrotation Yrotation Xrotation
						End Site
						{
							OFFSET 0.0 0.0 0.0
						}
					}
				}
			}
			JOINT left_shoulder
			{
				OFFSET -0.481 4.87 -3.6622
				CHANNELS 3 Zrotation Yrotation Xrotation
				JOINT left_elbow
				{
					OFFSET 0 -5.49576 0
					CHANNELS 3 Zrotation Yrotation Xrotation
					JOINT left_wrist
					{
						OFFSET 0 -5.17894 0
						CHANNELS 3 Zrotation Yrotation Xrotation
						End Site
						{
							OFFSET 0.0 0.0 0.0
						}
					}
				}
			}
		}
		JOINT right_hip
		{
			OFFSET 0 0 1.69774
			CHANNELS 3 Zrotation Yrotation Xrotation
			JOINT right_knee
			{
				OFFSET 0 -8.43092 0
				CHANNELS 3 Zrotation Yrotation Xrotation
				JOINT right_ankle
				{
					OFFSET 0 -8.1974 0
					CHANNELS 3 Zrotation Yrotation Xrotation
					End Site
					{
						OFFSET 0.0 0.0 0.0
					}
				}
			}
		}
		JOINT left_hip
		{
			OFFSET 0 0 -1.69774
			CHANNELS 3 Zrotation Yrotation Xrotation
			JOINT left_knee
			{
				OFFSET 0 -8.43092 0
				CHANNELS 3 Zrotation Yrotation Xrotation
				JOINT left_ankle
				{
					OFFSET 0 -8.1974 0
					CHANNELS 3 Zrotation Yrotation Xrotation
					End Site
					{
						OFFSET 0.0 0.0 0.0
					}
				}
			}
		}
	}
	JOINT red_arrow
	{
		OFFSET 0 0 0
		CHANNELS 3 Zrotation Yrotation Xrotation
		End Site
		{
			OFFSET 0.0 0.0 0.0
		}
	}
	JOINT blue_arrow
	{
		OFFSET 0 0 0
		CHANNELS 3 Zrotation Yrotation Xrotation
		End Site
		{
			OFFSET 0.0 0.0 0.0
		}
	}
}
MOTION
Frames: 14
Frame Time: 0.0333333333333333
0 18.08466 0 0 0 0 0 0 0 0 -90 0 0 0 0 0 0 0 0 0 -90 0 0 0 0 0 0 0 0 90 0 0 0 0 0 0 0 0 0 0 0 0 0 0 0 0 0 0 0 0 0 0 0 0 0 0 0 0 0 0
-0.305562491714954 0 0.00590637251734733 0 -1.10156849893317 0 0 17.9346792221069 0 -4.05265298922743 -6.83322294845677E-16 2.98541867337327 0.618815495740988 0.703674003083111 0.658866610097231 -16.6038352367372 -5.03013912364643 -1.0823642140773 11.426432749943 -11.4273224454799 -10.6705998653096 10.7198726193083 0 0 0 0 0 9.70014049141954 -5.68584371504765 12.488785243013 5.80346446180586 0 0 0 0 0 -0.032908724039281 0.309456389771721 -2.7204294640435 1.20037288788677E-05 0 0 1.02290557751963 -7.87284947324739 2.36009192644718 2.29824414029704 -0.253425204293054 -1.68045128378188 7.6364624076297E-05 0 0 -7.64921044765125 10.1002926691533 -2.92668848129353 0 0 0 0 0 0
-0.643321721255779 0 0.00927411057054996 0 -1.16643671120296 0 0 17.9095759510994 0 -5.42587602801933 -1.2269753561828 2.76802206899172 -3.34858915768114 0.773655426188118 1.36084004042882 -18.0674744152464 -7.01910789776459 -2.42209776936755 13.5441104651142 -10.8463115213212 -19.5408058178553 4.07535061593811 0 0 0 0 0 5.16753738942237 -6.68121319885895 19.8839293278918 -0.00650957382047214 0 0 0 0 0 4.56704440485149 -0.414662616353751 -2.19531459982728 0.000122368134420105 0 0 -3.57671546153246 -4.69481884482543 -0.0692262474069643 4.58922491322322 0.698757405850165 -1.25256873946312 0.000508397037112408 0 0 -7.6663213264981 10.0157381476245 -2.87142681816927 0 0 0 0 0 0
-1.0669030547142 0 -0.0232522850856185 0 -1.17558498899848 0 0 17.7613940954208 0 -7.62366846024619 -0.172280885477622 2.71411145652908 -8.98524390256196 0.462732561164049 2.66069300837659 -19.3774984324744 -8.96465620956996 -2.52869321021959 13.745492146593 -14.9878009983643 -31.4103903984902 -5.76088184148383E-05 0 0 0 0 0 -3.21603532984996 -3.83142271123527 31.032422971004 -2.70265969991153E-06 0 0 0 0 0 8.35501034484996 -1.35346199528803 -2.24858821118423 0.000568306058727985 0 0 -1.82728235943301 -4.57782010266508 -0.3408621226799 8.08309915349331 2.03991379606956 -1.40764642234409 2.53274923745141E-05 0 0 -5.50347671354731 8.09825797036345 -1.91991841973138 0 0 0 0 0 0
-1.6101611495018 0 -0.0378507194109261 0 -1.07924726737345 0 0 17.674011516571 0 -10.6468964692026 1.79892597785243 1.70339938400471 -15.1763439349158 0.735215250080952 5.5456590642773 -21.3118518465512 -10.9524025438097 -2.30684880122827 13.2063482473569 -22.0267413706195 -44.4369013981705 -0.0599188683604616 0 0 0 0 0 -12.6849306721644 1.44709156329753 41.8310067185668 -0.000216555146572609 0 0 0 0 0 12.9907215605234 -2.64738634365751 -1.6687329287891 0.00333711603613985 0 0 -2.21763234817971 -5.26312006425619 -0.42246166709098 13.0810594758603 3.04870373713011 -0.88621600447535 0.000786341421811128 0 0 -5.32418051194137 5.34445432352574 -1.23913166279645 0 0 0 0 0 0
-2.21190681159496 0 -0.111042886227369 0 -0.845906608382852 0 0 17.6530740737915 0 -13.3650274567849 4.31386098489868 1.30287454349559 -21.5241773670759 0.419270848594124 8.04206801200813 -23.3659406380262 -10.7041994708633 -1.70261454663962 15.2590125175971 -28.9832039143299 -56.1949894321381 -4.15230990951319E-06 0 0 0 0 0 -20.4502218567666 9.49041767674362 49.1093722299867 -0.00131310063710206 0 0 0 0 0 18.0055259902581 -5.03119681162063 -2.42448985739642 -0.784871178152181 0 0 -3.63969095978653 -5.44394136268547 -0.245155105360131 18.1395614970317 3.79025885244359 -1.62293766779455 9.88705278218062E-05 0 0 -8.29177089202432 2.12028269267388 -0.449413942775515 0 0 0 0 0 0
-2.97828864455223 0 -0.171065194904804 0 -0.54306283806201 0 0 17.6754908919334 0 -17.3370416464076 5.49425375208591 1.14398340966075 -27.3746977215305 0.752966474834333 9.28236797539154 -23.4440257183389 -8.32362844939478 -0.353460034403877 16.743585744186 -32.4311746247053 -59.7690297119976 -0.00826399945600315 0 0 0 0 0 -24.7324622293399 17.0092705734895 50.4524031846863 -0.0163231682756053 0 0 0 0 0 27.3872009035077 -6.47246737620142 -3.82515001207651 -6.16123830826759 0 0 -5.79740048974777 -4.34724696731284 0.0952806728611379 25.4070752606366 6.71971202390941 -2.53164422828295 -1.04114323754479 0 0 -13.6711927617509 -1.63853269708318 0.931428833026272 0 0 0 0 0 0
-3.74863964319229 0 -0.112075542658567 0 -0.193060627635112 0 0 17.6355028033257 0 -22.0322451986151 6.16829777488938 0.391299804201736 -31.1771210839516 0.676597357872423 9.49321764432229 -20.9087149616091 -5.33499638629724 1.14876766461718 14.5505981995521 -32.0248986495863 -52.7439151994187 1.43434695802958E-07 0 0 0 0 0 -26.8052430274777 23.3220742573485 47.917437977575 -7.87188606772968E-06 0 0 0 0 0 39.4215115115708 -6.0343606286223 -4.9238251790117 -16.1692092750087 0 0 -7.55318817829115 -2.13333549419487 0.494757080819538 37.4449989170243 10.3255667500513 -1.90792944954709 -10.6351065566138 0 0 -15.2333431950041 -4.23204694414109 2.69948891469258 0 0 0 0 0 0
-4.26794322729111 0 0.0190546300727874 0 0.143930761533575 0 0 17.3640612363815 0 -25.244110752234 5.79573881623087 -0.314261671823079 -31.3543930660579 0.427101174526514 8.50532154461982 -17.4597282692635 -3.31773607780213 1.92365032400553 10.2758946121174 -28.1955078887539 -40.5744225345646 -2.93457919279676E-05 0 0 0 0 0 -26.3154786697831 28.2549876243649 45.3523805987612 -4.95281318329364E-07 0 0 0 0 0 49.7489433377255 -3.74420195260722 -4.88611631944983 -27.6632974971163 0 0 -6.49638811213942 -0.0573286814891879 0.721167738537524 49.4125665865981 12.488675768981 0.414711606970645 -23.91318896351 0 0 -13.1950970726359 -5.27862043005606 3.81263318212433 0 0 0 0 0 0
-4.52763791680336 0 0.0870794482529163 0 0.412544476047365 0 0 16.827507340908 0 -26.3780587082878 4.57466300509374 0.208787645515144 -27.9836698499026 0.216413569922305 6.86517713019615 -14.2814074028627 -2.15151296533565 1.90824002667962 6.4633560469535 -22.6776309832585 -29.005063850566 -0.00270579357198893 0 0 0 0 0 -21.6258084328198 31.0706809248206 43.9761580072743 -2.4484100771187E-07 0 0 0 0 0 58.0779559414828 -1.53300652889682 -4.45487690347501 -39.849598070848 0 0 -2.39396736593842 0.191813444169402 0.735194895106264 58.7950661282473 13.4085139439765 2.65748498860399 -37.5301614513601 0 0 -8.71698569577428 -4.87820573613948 4.02734916177058 0 0 0 0 0 0
-4.66255744099617 0 0.0907273132354021 0 0.602837785471431 0 0 16.0912222981453 0 -26.6194232519239 3.23319189189749 1.66785121627437 -22.2402064382852 0.311336185989575 5.18049938571237 -10.7761992837736 -1.43081785216603 1.71619513658544 2.53722736298087 -17.1251838160847 -19.3783625681934 9.4175702507167E-08 0 0 0 0 0 -14.0406518000513 30.6952738427721 41.470377604973 -0.000145360786590067 0 0 0 0 0 65.8544239035619 -0.0322040849237034 -4.27638734464658 -52.480202450089 0 0 2.28463326759247 -0.685420676580833 0.493739251628851 66.8566632024652 13.5681012419178 4.27950485499094 -50.8316133505014 0 0 -4.46579538057601 -4.06937132697229 3.75290363836058 0 0 0 0 0 0
-4.72474982142448 0 0.0982571125030517 0 0.720100495588167 0 0 15.2119765996933 0 -25.9209829251978 2.00404351248882 2.94407091981732 -15.8978225028602 0.248302724570484 3.66362029213137 -7.68934512563094 -0.851178828693134 1.62355600608487 -0.0122737836262921 -12.5679518965082 -12.6735738712663 -6.89984586198055E-06 0 0 0 0 0 -6.55061449444049 28.0987140587339 36.2917057930757 -0.0132369307906212 0 0 0 0 0 71.4441714040146 1.07443482542002 -3.89834782086484 -63.2800839053348 0 0 9.17111034556542 -0.821676135416946 0.100715517327649 73.6175767082999 13.0724705549633 5.84920746025939 -63.4962389019982 0 0 -0.537080345708691 -3.16546476575821 3.22480158325243 0 0 0 0 0 0
-4.76759992837906 0 0.1293053612113 0 0.783063392211458 0 0 14.2597570180893 0 -24.3003338075534 1.09033117733688 3.61157591604614 -9.84414607702721 -0.0414548645969516 2.29666678844796 -4.76293818118557 -0.235477448160553 1.39723596393294 0.536979667800388 -8.62725704503728 -8.78460355885671 -6.57581905254193E-05 0 0 0 0 0 0.113875564187963 24.1836455761674 30.2862053455489 -2.0156102211735E-06 0 0 0 0 0 74.2640292764626 1.60134402800061 -3.4305536892629 -71.530139630199 0 0 19.4923130419344 -0.311139251448051 -0.290609222678135 78.2684472262541 11.9257402817947 6.97590869540002 -74.1038915132432 0 0 4.98732901595645 -2.02493153563865 2.39201810525027 0 0 0 0 0 0
-4.85033637881279 0 0.187749143689871 0 0.817401240140994 0 0 13.3898010849953 0 -21.5344799817047 0.606881731007343 3.69734181474619 -4.58836150612249 -0.0952957507006856 1.04370782154595 -2.5972554028976 0.476888968783716 1.20692046226152 6.95243399051959 -4.05680820005841 -7.10780240427713 0.604984912868379 0 0 0 0 0 9.69798791270658 19.865673176108 26.5641667604161 0.114462858091799 0 0 0 0 0 76.5916292994291 1.5717473738364 -2.98242712769368 -79.7205336526631 0 0 24.7270160656476 -0.0650434874076509 -0.65481443758668 79.3447512167888 10.5622690588496 7.40844409661773 -80.9992270275596 0 0 13.7809927965636 -1.37481785947402 1.55025701035893 0 0 0 0 0 0
